<?xml version="1.0" encoding="UTF-8"?>
<!DOCTYPE svg PUBLIC "-//W3C//DTD SVG 1.1//EN" "http://www.w3.org/Graphics/SVG/1.1/DTD/svg11.dtd">
<svg xmlns="http://www.w3.org/2000/svg" version="1.1" width="1024px" height="1024px" style="shape-rendering:geometricPrecision; text-rendering:geometricPrecision; image-rendering:optimizeQuality; fill-rule:evenodd; clip-rule:evenodd" xmlns:xlink="http://www.w3.org/1999/xlink">
<g><path style="opacity:1" fill="#fefefe" d="M -0.5,-0.5 C 340.833,-0.5 682.167,-0.5 1023.5,-0.5C 1023.5,340.833 1023.5,682.167 1023.5,1023.5C 682.167,1023.5 340.833,1023.5 -0.5,1023.5C -0.5,682.167 -0.5,340.833 -0.5,-0.5 Z"/></g>
<g><path style="opacity:1" fill="#000000" d="M 155.5,428.5 C 206.501,428.333 257.501,428.5 308.5,429C 313.757,431.256 317.257,435.09 319,440.5C 319.667,488.5 319.667,536.5 319,584.5C 317.167,590.333 313.333,594.167 307.5,596C 257.167,596.667 206.833,596.667 156.5,596C 150.667,594.167 146.833,590.333 145,584.5C 144.333,536.167 144.333,487.833 145,439.5C 146.711,433.959 150.211,430.292 155.5,428.5 Z"/></g>
<g><path style="opacity:1" fill="#fdfdfd" d="M 207.5,453.5 C 210.32,453.248 212.986,453.748 215.5,455C 227.333,467.5 239.167,480 251,492.5C 261.363,503.197 272.029,513.53 283,523.5C 287.098,530.028 287.432,536.695 284,543.5C 274.769,553.401 264.936,562.567 254.5,571C 251.581,571.552 248.914,570.885 246.5,569C 225.393,545.892 203.56,523.392 181,501.5C 176.004,494.263 175.671,486.929 180,479.5C 188.76,470.235 197.927,461.569 207.5,453.5 Z"/></g>
<g><path style="opacity:1" fill="#fdfdfd" d="M 250.5,453.5 C 255.702,452.756 260.369,453.923 264.5,457C 275.667,468.167 286.833,479.333 298,490.5C 298.982,491.759 299.315,493.092 299,494.5C 296.167,497.333 293.333,500.167 290.5,503C 288.788,504.751 286.788,505.418 284.5,505C 272.363,491.862 259.863,479.029 247,466.5C 243.948,461.215 245.115,456.882 250.5,453.5 Z"/></g>
<g><path style="opacity:1" fill="#020202" d="M 381.5,464.5 C 394.831,461.548 405.331,465.548 413,476.5C 414.266,480.395 414.766,484.395 414.5,488.5C 410.154,488.666 405.821,488.499 401.5,488C 398.926,477.546 392.593,474.213 382.5,478C 376.968,484.617 377.301,490.951 383.5,497C 390.5,500 397.5,503 404.5,506C 413.142,512.235 416.975,520.735 416,531.5C 414.288,542.212 408.121,548.712 397.5,551C 387.764,552.839 378.764,551.172 370.5,546C 364.933,540.698 362.266,534.198 362.5,526.5C 366.833,526.5 371.167,526.5 375.5,526.5C 375.686,532.71 378.686,536.876 384.5,539C 396.467,542.016 401.967,537.516 401,525.5C 400.117,522.898 398.617,520.731 396.5,519C 388.627,515.712 380.96,512.045 373.5,508C 364.978,499.748 362.478,489.915 366,478.5C 369.492,471.834 374.659,467.168 381.5,464.5 Z"/></g>
<g><path style="opacity:1" fill="#030303" d="M 617.5,464.5 C 623.509,464.334 629.509,464.501 635.5,465C 646.918,468.664 652.251,476.498 651.5,488.5C 646.833,488.5 642.167,488.5 637.5,488.5C 636.337,478.255 630.671,474.422 620.5,477C 613.91,483.634 613.91,490.301 620.5,497C 627.616,499.725 634.616,502.725 641.5,506C 653.034,515.416 655.534,526.916 649,540.5C 638.873,551.699 626.706,554.532 612.5,549C 602.872,544.575 598.205,537.075 598.5,526.5C 603.167,526.5 607.833,526.5 612.5,526.5C 612.691,535.193 617.191,539.86 626,540.5C 637.903,537.651 640.736,530.817 634.5,520C 626.5,516 618.5,512 610.5,508C 602.461,500.544 599.628,491.377 602,480.5C 604.685,472.65 609.852,467.316 617.5,464.5 Z"/></g>
<g><path style="opacity:1" fill="#040404" d="M 841.5,465.5 C 844.833,465.5 848.167,465.5 851.5,465.5C 859.662,493.821 868.329,521.987 877.5,550C 874.571,550.777 871.737,550.61 869,549.5C 866.401,542.538 863.901,535.538 861.5,528.5C 851.167,527.167 840.833,527.167 830.5,528.5C 828.099,535.538 825.599,542.538 823,549.5C 820.263,550.61 817.429,550.777 814.5,550C 823.803,521.924 832.803,493.757 841.5,465.5 Z"/></g>
<g><path style="opacity:1" fill="#020202" d="M 886.5,465.5 C 889.167,465.5 891.833,465.5 894.5,465.5C 894.5,493.833 894.5,522.167 894.5,550.5C 891.833,550.5 889.167,550.5 886.5,550.5C 886.5,522.167 886.5,493.833 886.5,465.5 Z"/></g>
<g><path style="opacity:1" fill="#010101" d="M 427.5,471.5 C 432.5,471.5 437.5,471.5 442.5,471.5C 442.5,477.833 442.5,484.167 442.5,490.5C 446.167,490.5 449.833,490.5 453.5,490.5C 453.5,494.167 453.5,497.833 453.5,501.5C 449.833,501.5 446.167,501.5 442.5,501.5C 442.333,512.838 442.5,524.172 443,535.5C 443.5,537.333 444.667,538.5 446.5,539C 448.81,539.497 451.143,539.663 453.5,539.5C 453.793,543.437 453.46,547.27 452.5,551C 439.166,554.429 430.999,549.596 428,536.5C 427.5,524.838 427.333,513.171 427.5,501.5C 424.833,501.5 422.167,501.5 419.5,501.5C 419.5,497.833 419.5,494.167 419.5,490.5C 422.167,490.5 424.833,490.5 427.5,490.5C 427.5,484.167 427.5,477.833 427.5,471.5 Z"/></g>
<g><path style="opacity:1" fill="#020202" d="M 775.5,472.5 C 779.833,472.5 784.167,472.5 788.5,472.5C 788.5,478.167 788.5,483.833 788.5,489.5C 792.5,489.5 796.5,489.5 800.5,489.5C 800.5,493.5 800.5,497.5 800.5,501.5C 796.5,501.5 792.5,501.5 788.5,501.5C 788.333,512.838 788.5,524.172 789,535.5C 789.5,537.333 790.667,538.5 792.5,539C 795.146,539.497 797.813,539.664 800.5,539.5C 800.793,543.437 800.46,547.27 799.5,551C 793.295,551.984 787.295,551.317 781.5,549C 778.769,546.374 776.936,543.207 776,539.5C 775.5,526.838 775.333,514.171 775.5,501.5C 772.5,501.5 769.5,501.5 766.5,501.5C 766.5,497.5 766.5,493.5 766.5,489.5C 769.5,489.5 772.5,489.5 775.5,489.5C 775.5,483.833 775.5,478.167 775.5,472.5 Z"/></g>
<g><path style="opacity:1" fill="#fbfbfb" d="M 845.5,476.5 C 846.117,476.611 846.617,476.944 847,477.5C 851.147,491.438 854.981,505.438 858.5,519.5C 850.167,519.5 841.833,519.5 833.5,519.5C 837.908,505.276 841.908,490.943 845.5,476.5 Z"/></g>
<g><path style="opacity:1" fill="#040404" d="M 206.5,480.5 C 209.226,480.264 211.559,481.097 213.5,483C 228.638,499.138 244.138,514.971 260,530.5C 260.833,532.167 261.667,533.833 262.5,535.5C 260.111,542.134 255.778,544.301 249.5,542C 233.304,526.138 217.471,509.971 202,493.5C 199.518,487.796 201.018,483.463 206.5,480.5 Z"/></g>
<g><path style="opacity:1" fill="#030303" d="M 475.5,488.5 C 492.038,486.874 501.872,494.208 505,510.5C 506.246,520.419 505.246,530.085 502,539.5C 499.164,545.837 494.331,549.67 487.5,551C 465.087,552.753 454.754,542.253 456.5,519.5C 455.768,508.521 459.435,499.354 467.5,492C 470.309,490.907 472.976,489.74 475.5,488.5 Z"/></g>
<g><path style="opacity:1" fill="#010101" d="M 535.5,488.5 C 537.833,488.5 540.167,488.5 542.5,488.5C 542.5,493.5 542.5,498.5 542.5,503.5C 532.47,502.026 526.97,506.36 526,516.5C 525.5,527.828 525.333,539.162 525.5,550.5C 521.167,550.5 516.833,550.5 512.5,550.5C 512.5,530.5 512.5,510.5 512.5,490.5C 516.833,490.5 521.167,490.5 525.5,490.5C 525.337,492.857 525.503,495.19 526,497.5C 528.406,493.592 531.572,490.592 535.5,488.5 Z"/></g>
<g><path style="opacity:1" fill="#020202" d="M 565.5,488.5 C 582.145,486.65 591.645,493.984 594,510.5C 594.499,514.486 594.666,518.486 594.5,522.5C 583.167,522.5 571.833,522.5 560.5,522.5C 559.251,529.258 561.251,534.758 566.5,539C 574.178,540.66 579.512,537.827 582.5,530.5C 586.094,531.426 589.76,531.759 593.5,531.5C 592.987,540.362 588.654,546.529 580.5,550C 561.436,554.913 550.269,547.746 547,528.5C 545.247,517.575 546.913,507.241 552,497.5C 555.528,492.834 560.028,489.834 565.5,488.5 Z"/></g>
<g><path style="opacity:1" fill="#020202" d="M 674.5,544.5 C 674.44,543.957 674.107,543.624 673.5,543.5C 672.501,553.478 672.168,563.478 672.5,573.5C 668.167,573.5 663.833,573.5 659.5,573.5C 659.5,545.833 659.5,518.167 659.5,490.5C 664.167,490.5 668.833,490.5 673.5,490.5C 672.771,497.812 674.105,498.312 677.5,492C 692.287,485.066 702.454,489.232 708,504.5C 710.238,515.592 709.905,526.592 707,537.5C 701.301,550.733 691.801,554.567 678.5,549C 676.959,547.629 675.625,546.129 674.5,544.5 Z"/></g>
<g><path style="opacity:1" fill="#040304" d="M 733.5,488.5 C 751.72,487.025 761.886,495.358 764,513.5C 764.593,521.687 763.593,529.687 761,537.5C 755.14,549.25 745.64,553.75 732.5,551C 723.486,547.985 717.986,541.818 716,532.5C 713.656,521.967 714.323,511.634 718,501.5C 721.258,494.73 726.425,490.397 733.5,488.5 Z"/></g>
<g><path style="opacity:1" fill="#fcfcfc" d="M 477.5,500.5 C 485.707,499.536 490.207,503.202 491,511.5C 492.336,520.168 491.336,528.502 488,536.5C 478.484,542.487 472.817,539.82 471,528.5C 470.333,522.5 470.333,516.5 471,510.5C 471.949,506.243 474.115,502.909 477.5,500.5 Z"/></g>
<g><path style="opacity:1" fill="#f8f9f9" d="M 567.5,500.5 C 577.244,499.929 581.577,504.595 580.5,514.5C 573.833,514.5 567.167,514.5 560.5,514.5C 560.203,508.426 562.537,503.759 567.5,500.5 Z"/></g>
<g><path style="opacity:1" fill="#fbfbfb" d="M 681.5,500.5 C 688.78,499.387 693.28,502.387 695,509.5C 697.27,518.402 696.603,527.068 693,535.5C 686.781,540.998 680.781,540.665 675,534.5C 673.424,525.911 673.09,517.244 674,508.5C 675.38,504.625 677.88,501.958 681.5,500.5 Z"/></g>
<g><path style="opacity:1" fill="#fcfcfc" d="M 735.5,500.5 C 742.778,499.272 747.278,502.272 749,509.5C 749.667,516.167 749.667,522.833 749,529.5C 747.338,538.842 742.171,541.675 733.5,538C 731.036,534.951 729.536,531.451 729,527.5C 727.474,518.667 728.807,510.334 733,502.5C 733.995,501.934 734.828,501.267 735.5,500.5 Z"/></g>
<g><path style="opacity:1" fill="#fcfcfc" d="M 176.5,521.5 C 177.873,521.343 179.207,521.51 180.5,522C 192.304,534.804 204.47,547.304 217,559.5C 218.495,563.703 217.662,567.536 214.5,571C 209.708,573.032 205.041,572.699 200.5,570C 188.135,557.903 176.468,545.236 165.5,532C 169.062,528.268 172.729,524.768 176.5,521.5 Z"/></g>
<g><path style="opacity:1" fill="#606060" d="M 674.5,544.5 C 673.833,554.167 673.167,563.833 672.5,573.5C 672.168,563.478 672.501,553.478 673.5,543.5C 674.107,543.624 674.44,543.957 674.5,544.5 Z"/></g>
</svg>
